<?xml version="1.0" standalone="no"?>
<!DOCTYPE svg PUBLIC "-//W3C//DTD SVG 20010904//EN"
 "http://www.w3.org/TR/2001/REC-SVG-20010904/DTD/svg10.dtd">
<svg version="1.0" xmlns="http://www.w3.org/2000/svg"
 width="195.000000pt" height="259.000000pt" viewBox="0 0 195.000000 259.000000"
 preserveAspectRatio="xMidYMid meet">

<g transform="translate(0.000000,259.000000) scale(0.100000,-0.100000)"
fill="#000000" stroke="none">
<path d="M0 2310 c1 -238 3 -280 15 -280 8 0 15 -7 15 -15 0 -8 -7 -15 -15
-15 -9 0 -15 -9 -15 -25 0 -14 5 -25 10 -25 6 0 10 -5 10 -11 0 -17 53 -64 70
-62 10 2 11 0 2 -3 -7 -3 -12 -25 -12 -54 l0 -48 -42 4 -43 5 35 -16 c24 -11
31 -18 22 -24 -9 -6 -3 -12 20 -20 80 -30 83 -35 80 -98 -2 -32 -8 -82 -14
-112 -11 -61 5 -136 28 -127 7 3 15 0 17 -7 5 -17 -4 -47 -14 -47 -5 0 -9 -5
-9 -12 0 -6 -7 -20 -17 -30 -15 -17 -15 -18 12 -18 24 0 26 -2 14 -16 -7 -9
-42 -37 -78 -62 -37 -26 -72 -52 -78 -59 -10 -9 -13 -137 -13 -572 l0 -561
975 0 975 0 0 336 0 336 -21 -5 c-12 -3 -37 3 -58 14 l-36 21 43 -7 c34 -6 42
-4 42 9 0 10 -9 16 -24 16 -34 0 -56 10 -56 25 0 17 -71 30 -80 15 -5 -8 -10
-9 -14 -2 -3 6 6 15 21 20 26 9 24 10 -32 22 -33 8 -52 15 -42 18 22 4 21 8
-2 38 -16 21 -20 22 -31 9 -8 -10 -9 -19 -3 -28 19 -24 -15 -94 -41 -84 -9 4
-16 11 -16 16 0 6 7 8 15 5 8 -4 15 -1 15 4 0 12 -36 26 -48 18 -4 -2 -27 4
-50 14 -37 17 -44 17 -48 5 -4 -8 -13 -15 -21 -15 -31 0 -8 -35 27 -41 26 -4
31 -7 18 -13 -10 -5 -14 -14 -11 -23 3 -8 0 -19 -8 -24 -12 -7 -12 -9 1 -9 11
-1 10 -4 -5 -17 -18 -14 -18 -15 -1 -9 15 5 17 2 12 -19 -4 -14 -2 -25 4 -25
18 0 11 -18 -10 -23 -25 -6 -18 -30 13 -46 21 -11 21 -11 -3 -5 -14 4 -31 9
-39 12 -9 3 -12 1 -7 -6 4 -7 13 -12 20 -12 7 0 13 -7 13 -15 0 -9 -10 -15
-24 -15 -14 0 -21 -4 -18 -10 3 -5 0 -10 -7 -10 -8 0 -7 -5 4 -16 14 -15 15
-18 0 -35 -8 -10 -20 -15 -25 -12 -5 3 -1 -7 9 -23 14 -21 15 -29 6 -32 -10
-3 -10 -7 -1 -18 9 -12 9 -13 -3 -9 -9 4 -18 -1 -22 -11 -5 -14 -9 -14 -24 -3
-14 12 -14 10 1 -8 11 -12 16 -27 11 -34 -4 -8 -3 -10 4 -5 7 4 12 1 12 -10 0
-15 -2 -15 -25 0 -29 19 -44 21 -27 4 7 -7 12 -16 12 -22 0 -5 -17 6 -37 25
-21 18 -30 25 -22 14 27 -35 31 -45 15 -39 -9 3 -16 1 -16 -5 0 -6 4 -11 9
-11 5 0 12 -8 16 -18 5 -14 4 -15 -6 -4 -20 19 -31 14 -19 -7 14 -28 12 -38
-3 -16 -10 13 -16 15 -22 6 -5 -9 -11 -4 -21 14 -19 37 -17 45 5 16 13 -17 19
-20 23 -10 2 8 -6 24 -18 35 l-22 22 -7 -22 c-4 -11 -7 -28 -6 -36 1 -11 -3
-10 -14 4 -19 25 -19 18 0 -27 8 -20 15 -39 15 -42 0 -7 -43 17 -52 30 -4 6
-8 1 -8 -10 0 -17 -2 -17 -10 -5 -9 13 -10 13 -10 -1 0 -8 5 -20 11 -26 6 -6
8 -17 4 -23 -5 -8 -14 -1 -26 19 -10 17 -24 31 -30 31 -6 0 -1 -15 11 -34 13
-22 17 -37 10 -41 -6 -4 -9 -3 -8 2 2 4 -1 8 -7 8 -5 0 -9 -3 -8 -7 2 -4 -4
-5 -13 -1 -13 5 -15 1 -10 -18 6 -21 3 -20 -25 11 -20 22 -29 28 -24 15 15
-41 17 -55 7 -55 -6 0 -13 6 -15 13 -3 7 -6 5 -6 -5 -2 -29 -21 -20 -28 12 -7
36 -22 48 -34 29 -5 -8 -9 -9 -9 -3 0 25 26 34 48 18 13 -9 22 -12 21 -7 -1 4
1 16 5 25 7 16 10 16 28 -5 l19 -22 -6 23 c-4 12 -2 22 4 22 5 0 12 -8 14 -18
3 -9 5 1 6 23 0 22 -3 36 -7 30 -9 -13 -52 -15 -52 -2 0 5 -9 7 -20 4 -11 -3
-20 -1 -20 4 0 22 -21 6 -34 -26 -18 -43 -35 -45 -42 -6 -6 27 -30 48 -42 37
-2 -3 3 -22 13 -43 26 -55 27 -60 13 -40 -50 71 -58 80 -58 64 0 -9 -6 -17
-14 -17 -11 0 -10 -10 6 -53 14 -37 15 -48 5 -37 -20 21 -37 75 -30 98 3 12
-2 25 -14 33 -10 8 -24 27 -31 42 -7 15 -17 25 -22 22 -6 -3 -10 -1 -10 5 0
13 43 3 48 -11 2 -5 10 -9 18 -9 9 0 13 3 10 8 -2 4 2 16 10 27 13 17 17 18
35 7 19 -12 20 -11 14 7 -5 16 -2 18 17 14 34 -9 50 -24 45 -45 -6 -20 19 -51
34 -43 5 4 9 14 9 24 0 25 26 44 50 38 11 -3 20 -1 20 5 0 6 7 8 15 4 9 -3 15
0 15 9 0 8 5 15 10 15 6 0 10 7 10 15 0 8 -5 15 -12 15 -6 0 -8 3 -5 7 4 3 18
-4 31 -16 20 -19 24 -20 36 -6 7 8 16 13 20 10 4 -2 5 7 2 21 -4 23 -2 24 23
20 16 -3 33 -10 39 -16 19 -19 29 -10 10 11 -18 20 -18 21 0 35 11 7 30 12 43
10 32 -6 29 0 -9 18 -26 14 -36 14 -60 4 -15 -7 -28 -18 -28 -25 0 -7 -13 -11
-30 -11 -16 1 -30 5 -30 9 0 12 -62 -1 -80 -17 -10 -9 -20 -10 -33 -3 -13 8
-17 6 -17 -6 0 -18 -21 -20 -37 -4 -7 7 -17 8 -25 3 -11 -7 -30 -10 -98 -13
-72 -4 -123 6 -140 27 -11 13 -31 25 -47 27 -61 10 -135 35 -160 55 -14 11
-32 20 -40 20 -22 0 -60 33 -55 48 2 6 -3 12 -12 12 -9 0 -16 5 -16 10 0 6 -7
10 -15 10 -8 0 -15 6 -15 13 0 6 -7 21 -16 32 -14 19 -15 17 -13 -31 1 -28 -1
-56 -5 -62 -10 -17 -26 -15 -26 4 0 9 -5 12 -11 8 -9 -5 -10 3 -5 29 4 22 2
38 -4 42 -8 5 -6 12 4 24 9 10 13 21 9 26 -5 4 0 5 11 1 18 -6 18 -5 2 19 -15
23 -15 25 0 25 13 0 14 3 4 15 -10 11 -9 18 3 30 18 18 27 19 27 5 0 -6 9 -20
20 -32 17 -18 20 -19 26 -5 7 20 -3 37 -22 37 -10 0 -9 5 6 20 11 11 20 25 20
30 0 13 -33 13 -46 0 -6 -6 -15 -6 -24 0 -12 8 -11 10 5 10 12 0 16 3 9 8 -6
4 -13 19 -16 34 -8 41 26 48 61 14 15 -14 32 -26 37 -26 6 0 26 -13 44 -30 41
-36 46 -37 54 -5 10 40 52 34 70 -10 16 -37 32 -49 21 -15 -3 11 -2 20 3 20 5
0 12 9 15 19 2 11 19 27 36 36 30 15 38 15 109 -1 121 -26 231 -36 285 -24
100 21 128 13 142 -43 4 -15 14 -27 22 -27 7 0 25 -12 38 -26 14 -15 25 -22
25 -17 0 6 19 13 42 17 31 5 51 2 75 -11 18 -9 35 -14 39 -10 10 9 -15 37 -33
37 -13 0 -13 3 -3 15 7 9 21 13 31 10 14 -5 16 -1 12 15 -4 16 -2 19 11 14 12
-5 15 -2 10 10 -3 9 -2 16 4 16 19 0 21 39 2 45 -12 4 -16 12 -13 25 4 14 0
20 -11 20 -10 0 -27 5 -39 12 -12 7 -38 13 -57 14 -66 4 -115 15 -137 29 -27
18 -63 19 -63 3 0 -9 -3 -9 -8 -2 -4 5 -16 11 -27 11 -45 3 -60 9 -68 28 -8
19 -9 19 -22 2 -11 -15 -21 -17 -66 -11 -30 4 -59 13 -64 21 -8 11 -20 12 -56
4 -58 -13 -220 -18 -236 -8 -7 5 -13 17 -13 27 0 24 -16 34 -24 15 -3 -8 -1
-15 4 -15 6 0 10 -6 10 -14 0 -17 -86 -26 -101 -11 -7 7 -13 5 -18 -4 -7 -10
-11 -9 -23 7 -14 21 -14 21 -26 1 -20 -31 -57 -21 -57 15 0 16 -5 31 -12 33
-8 3 -10 -8 -6 -36 6 -44 -4 -52 -31 -25 -10 9 -14 24 -10 39 3 12 1 26 -5 30
-6 3 -8 12 -4 18 4 7 9 23 11 36 2 13 10 34 19 47 8 13 12 24 7 24 -4 0 -3 5
4 12 7 7 12 21 12 31 0 17 5 19 32 13 45 -9 56 -23 32 -41 -10 -8 -27 -15 -38
-15 -13 0 -16 -5 -11 -17 4 -10 12 -49 19 -88 14 -78 28 -74 31 9 2 28 3 61 4
74 1 15 7 22 21 22 15 0 20 7 20 25 0 16 -6 25 -15 25 -8 0 -15 4 -15 9 0 5
-3 18 -7 28 -3 10 -3 15 2 11 4 -4 14 -3 22 4 16 13 13 16 42 -48 19 -42 27
-51 43 -46 17 4 20 11 15 48 -5 49 0 52 61 35 24 -7 32 -7 32 3 0 21 27 40 33
24 3 -10 9 -10 23 -2 25 14 38 68 23 95 -8 16 -8 23 1 29 8 5 4 9 -11 13 -15
4 -28 0 -40 -14 -23 -27 -39 -16 -39 26 0 18 -6 35 -12 38 -8 2 -9 8 -4 13 5
5 11 4 13 -3 9 -24 24 -13 21 15 -3 23 -7 27 -30 24 -34 -3 -36 5 -5 17 13 5
27 5 35 -2 13 -11 41 16 42 41 0 6 6 12 13 12 7 0 23 14 36 30 27 38 38 32 47
-25 3 -25 15 -56 25 -70 20 -25 72 -55 96 -55 7 0 13 -4 13 -9 0 -5 14 -9 31
-9 17 1 25 4 19 8 -20 12 8 23 69 26 92 5 109 9 103 18 -3 5 5 6 18 3 13 -3
29 -2 36 4 8 6 14 6 18 0 6 -10 47 -3 45 8 -2 19 -18 46 -28 47 -25 3 -25 5
-2 23 l25 19 -33 32 c-30 30 -33 31 -50 16 -27 -25 -103 -31 -150 -12 -22 8
-47 13 -56 10 -8 -3 -15 -2 -15 3 0 5 -16 15 -34 23 -22 8 -39 24 -47 42 -6
15 -16 28 -22 28 -7 0 -7 4 1 12 7 7 36 11 71 10 42 -1 62 3 71 13 18 22 5 30
-25 17 -14 -6 -27 -7 -30 -2 -9 15 16 23 64 21 25 -1 61 -2 79 -1 17 0 32 -4
32 -9 0 -5 8 -12 18 -15 10 -3 42 -22 72 -41 30 -19 61 -35 70 -35 21 0 92
-59 84 -71 -3 -5 0 -8 7 -7 7 2 14 -6 16 -17 3 -16 2 -17 -6 -5 -6 8 -11 12
-11 9 0 -13 24 -74 31 -79 16 -11 87 -177 94 -220 8 -53 24 -78 36 -59 8 14
39 -15 60 -56 5 -11 -1 -6 -16 10 -21 25 -27 28 -35 15 -6 -10 -5 -17 3 -20 7
-3 12 -18 11 -35 -1 -42 5 -55 27 -55 10 0 19 -4 19 -10 0 -5 -9 -10 -20 -10
-25 0 -25 -11 -2 -41 11 -13 22 -37 26 -52 6 -26 5 -28 -14 -22 -11 4 -20 2
-20 -4 0 -6 5 -11 10 -11 6 0 10 -7 10 -15 0 -14 5 -17 39 -19 8 -1 16 -8 18
-16 3 -9 1 -11 -4 -5 -4 6 -23 8 -43 4 -19 -3 -26 -7 -15 -8 l20 -2 -20 -9
c-19 -8 -19 -8 -1 -16 18 -7 18 -8 0 -21 -10 -7 -13 -13 -7 -13 6 0 13 -11 15
-24 4 -20 1 -26 -19 -28 l-24 -3 21 -22 c21 -23 47 -32 35 -13 -9 15 4 30 20
24 8 -4 13 -10 10 -14 -6 -10 34 -25 42 -16 4 3 -1 6 -10 6 -23 0 -21 7 8 34
31 29 25 55 -11 48 -26 -5 -31 -21 -11 -41 10 -11 9 -13 -6 -7 -10 3 -23 6
-28 6 -5 0 -5 10 1 24 5 13 6 27 2 32 -4 4 1 4 11 1 12 -5 17 -1 17 13 0 10 7
25 15 33 8 8 12 17 9 20 -3 3 -3 15 1 27 6 17 12 20 41 14 40 -7 45 7 9 30
-31 20 -46 21 -39 1 4 -8 2 -15 -3 -15 -16 0 -33 93 -21 108 6 7 10 35 9 63
-1 33 4 55 13 65 9 8 12 22 9 30 -5 14 -8 12 -18 -7 l-13 -23 -16 32 c-9 17
-24 35 -33 40 -15 9 -15 12 1 45 17 38 18 57 1 69 -6 4 -2 8 8 8 20 0 23 26 5
33 -8 3 -6 6 5 6 15 1 16 5 7 21 -8 15 -8 20 2 21 7 0 4 4 -7 9 -11 5 -14 9
-6 9 11 1 11 4 1 16 -10 12 -10 15 2 15 10 0 14 12 12 48 -1 58 -1 57 -18 43
-10 -8 -16 -9 -21 -1 -4 6 6 13 25 16 36 8 48 22 24 31 -15 6 -15 7 -1 18 13
9 17 37 21 126 5 113 5 114 -25 161 -16 25 -37 49 -45 52 -8 3 -13 10 -10 15
8 12 -113 141 -132 141 -8 0 -28 10 -45 22 -16 12 -38 22 -47 23 -10 1 -25 9
-34 18 -10 9 -25 17 -34 16 -11 0 -12 -2 -5 -6 23 -9 15 -33 -9 -30 -13 1 -25
4 -28 7 -3 3 -24 14 -47 24 -36 16 -45 17 -59 5 -15 -13 -16 -10 -10 26 4 22
7 52 7 68 0 15 4 27 9 27 12 0 38 55 46 96 l6 34 -586 0 -586 0 0 -280z m1117
208 c-3 -8 -6 -5 -6 6 -1 11 2 17 5 13 3 -3 4 -12 1 -19z m-1024 -485 c-7 -2
-21 -2 -30 0 -10 3 -4 5 12 5 17 0 24 -2 18 -5z m607 -33 c12 -8 11 -10 -7
-10 -13 0 -23 5 -23 10 0 13 11 13 30 0z m80 -60 c0 -5 -4 -10 -10 -10 -5 0
-10 5 -10 10 0 6 5 10 10 10 6 0 10 -4 10 -10z m200 -42 c0 -6 -6 -5 -15 2 -8
7 -15 14 -15 16 0 2 7 1 15 -2 8 -4 15 -11 15 -16z m-856 -63 c3 -9 -1 -18
-10 -22 -19 -7 -28 2 -21 22 8 19 23 19 31 0z m1236 -101 c0 -2 -9 0 -20 6
-11 6 -20 13 -20 16 0 2 9 0 20 -6 11 -6 20 -13 20 -16z m125 -74 c3 -5 1 -10
-4 -10 -6 0 -11 5 -11 10 0 6 2 10 4 10 3 0 8 -4 11 -10z m95 -12 c0 -6 -6 -5
-15 2 -8 7 -15 14 -15 16 0 2 7 1 15 -2 8 -4 15 -11 15 -16z m-125 -67 c-4 -3
-10 1 -15 9 -7 11 -10 12 -10 2 0 -7 -4 -11 -10 -7 -5 3 -7 12 -3 21 5 13 8
13 24 -2 11 -10 17 -20 14 -23z m-300 9 c3 -5 1 -10 -4 -10 -6 0 -11 5 -11 10
0 6 2 10 4 10 3 0 8 -4 11 -10z m305 -59 c12 -23 13 -31 3 -31 -5 0 -13 11
-20 25 -13 29 1 34 17 6z m123 2 c-7 -2 -19 -2 -25 0 -7 3 -2 5 12 5 14 0 19
-2 13 -5z m-1022 -130 c-9 -16 -10 -14 -11 12 0 21 3 26 11 18 8 -8 8 -16 0
-30z m-214 -89 c-3 -3 -12 -4 -19 -1 -8 3 -5 6 6 6 11 1 17 -2 13 -5z m-61
-321 c-10 -10 -19 5 -10 18 6 11 8 11 12 0 2 -7 1 -15 -2 -18z m27 -200 c-7
-2 -19 -2 -25 0 -7 3 -2 5 12 5 14 0 19 -2 13 -5z m1444 -9 c-3 -3 -12 -4 -19
-1 -8 3 -5 6 6 6 11 1 17 -2 13 -5z m66 -48 c3 -8 3 -17 0 -20 -7 -7 -33 13
-33 25 0 15 27 10 33 -5z m-189 -81 c-4 -11 -10 -10 -25 3 -24 21 -24 20 5 15
15 -3 23 -10 20 -18z m-1272 -142 c10 -9 18 -23 18 -31 0 -8 6 -12 13 -9 20 7
35 -23 35 -72 1 -50 5 -56 40 -56 18 0 28 -6 30 -19 2 -11 0 -16 -7 -12 -6 4
-13 -8 -16 -28 -8 -40 -30 -53 -51 -31 -13 13 -13 15 -1 15 8 0 18 7 21 16 11
30 6 37 -14 19 -20 -18 -20 -17 -20 13 0 40 -17 51 -23 15 -3 -20 -4 -15 -6
15 0 26 -5 41 -11 37 -5 -3 -10 -1 -10 5 0 7 -7 10 -15 6 -18 -7 -20 15 -3 32
9 9 8 12 -5 12 -9 0 -17 5 -17 10 0 6 7 10 15 10 8 0 15 4 15 8 0 5 -14 7 -30
4 -26 -4 -29 -2 -24 14 6 18 32 44 43 44 2 0 13 -7 23 -17z m149 -130 c0 -10
3 -13 6 -5 9 22 23 12 44 -33 23 -50 35 -59 25 -20 -9 35 7 31 48 -10 20 -19
41 -35 48 -35 10 0 10 -2 -1 -9 -11 -7 -8 -13 14 -27 21 -13 28 -15 34 -5 11
18 21 -10 21 -58 0 -20 5 -42 11 -48 9 -9 7 -16 -6 -29 -17 -17 -17 -17 -11 4
5 14 3 22 -4 22 -6 0 -9 4 -5 10 8 12 -16 50 -32 50 -7 0 -12 3 -10 8 4 13
-67 83 -82 80 -12 -3 -16 -15 -16 -45 0 -54 -17 -56 -32 -4 -7 25 -8 41 -2 41
20 0 -22 58 -56 78 -35 21 -43 36 -25 47 5 3 6 13 3 23 -6 16 -6 16 10 0 9 -9
17 -25 18 -35z m702 32 c-3 -9 -8 -14 -10 -11 -3 3 -2 9 2 15 9 16 15 13 8 -4z
m-548 -103 c-8 -8 -25 17 -25 38 0 9 6 6 16 -8 9 -13 13 -26 9 -30z m-131 -59
c4 -9 2 -21 -4 -27 -5 -5 -10 -24 -11 -40 l0 -31 -11 25 c-5 14 -14 33 -19 42
-12 23 -12 41 0 33 5 -3 12 -1 16 5 9 15 22 12 29 -7z m-68 -50 c-10 -10 -19
5 -10 18 6 11 8 11 12 0 2 -7 1 -15 -2 -18z m196 -73 c-7 -48 -23 -46 -18 2 3
24 5 45 6 48 0 3 4 -1 8 -8 5 -7 6 -26 4 -42z m-175 -12 c-3 -7 -5 -2 -5 12 0
14 2 19 5 13 2 -7 2 -19 0 -25z m123 13 c0 -5 -6 -21 -14 -35 -13 -25 -14 -25
-19 -6 -3 11 -1 18 4 14 5 -3 9 4 9 15 0 12 5 21 10 21 6 0 10 -4 10 -9z m265
-21 c3 -5 2 -10 -4 -10 -5 0 -13 5 -16 10 -3 6 -2 10 4 10 5 0 13 -4 16 -10z
m84 -45 c3 -17 2 -17 -13 -3 -19 20 -21 31 -3 26 6 -3 14 -13 16 -23z"/>
<path d="M385 440 c3 -5 10 -10 16 -10 5 0 9 5 9 10 0 6 -7 10 -16 10 -8 0
-12 -4 -9 -10z"/>
<path d="M1320 2587 c0 -1 -9 -27 -20 -57 -29 -79 -24 -83 15 -15 39 68 41 75
20 75 -8 0 -15 -1 -15 -3z"/>
<path d="M1420 2566 c-7 -14 -10 -32 -7 -40 4 -10 1 -16 -8 -16 -8 0 -15 -7
-15 -15 0 -30 -22 -115 -30 -115 -4 0 -6 19 -3 42 4 27 3 39 -5 35 -12 -8 -65
-97 -60 -101 1 -2 13 -8 25 -15 18 -9 24 -8 32 6 6 10 11 13 11 6 0 -6 14 -18
31 -27 25 -12 30 -13 26 -2 -3 8 0 22 7 32 12 16 13 15 18 -10 3 -14 1 -29 -5
-33 -5 -3 -1 -11 10 -17 34 -19 73 -53 73 -65 0 -9 31 -31 44 -31 3 0 6 6 6
14 0 7 7 27 15 42 10 18 15 52 14 89 -1 33 1 83 5 110 l6 50 -15 -50 -14 -50
2 50 c1 28 5 52 8 55 15 12 17 47 4 64 -15 20 -15 20 -30 0 -13 -17 -14 -17
-15 -1 0 13 -8 17 -34 17 l-34 0 -7 -75 c-8 -87 -25 -91 -25 -7 0 71 -11 92
-30 58z m123 -173 c-6 -39 -23 -70 -23 -41 0 30 13 78 21 78 4 0 5 -17 2 -37z"/>
<path d="M1641 2574 c-11 -13 -11 -18 -1 -24 7 -4 10 -14 7 -22 -3 -8 -1 -21
3 -28 9 -14 9 -13 25 65 6 29 -12 33 -34 9z"/>
<path d="M1821 2566 c-30 -31 -43 -91 -28 -123 10 -22 8 -28 -12 -44 -19 -15
-22 -24 -15 -46 4 -16 7 -31 6 -35 -1 -5 39 -8 88 -8 l90 0 0 140 0 140 -53 0
c-44 0 -58 -4 -76 -24z m65 -116 c7 0 16 -5 19 -10 4 -7 -8 -10 -35 -8 -46 2
-60 19 -39 44 12 15 15 14 27 -5 8 -11 20 -21 28 -21z"/>
<path d="M1740 2526 c0 -9 5 -16 10 -16 6 0 10 4 10 9 0 6 -4 13 -10 16 -5 3
-10 -1 -10 -9z"/>
<path d="M1666 2463 c-6 -14 -9 -15 -16 -3 -7 11 -8 -79 -1 -100 3 -9 40 84
40 103 1 22 -15 22 -23 0z"/>
<path d="M1730 2455 c0 -15 -5 -36 -11 -47 -7 -13 -7 -24 -1 -30 10 -10 15 -1
27 59 4 18 2 34 -4 38 -7 4 -11 -4 -11 -20z"/>
<path d="M1890 2270 c20 -13 60 -13 60 0 0 6 -17 10 -37 10 -28 0 -34 -3 -23
-10z"/>
<path d="M992 1809 c-9 -22 -7 -68 3 -78 3 -2 11 2 19 8 10 9 13 23 9 44 -8
45 -21 55 -31 26z"/>
<path d="M925 1800 c3 -5 10 -10 16 -10 5 0 9 5 9 10 0 6 -7 10 -16 10 -8 0
-12 -4 -9 -10z"/>
<path d="M1709 1693 c-1 -5 -1 -16 0 -25 1 -9 -7 -19 -19 -23 -11 -3 -18 -11
-15 -16 4 -5 0 -9 -9 -9 -17 0 -15 -21 4 -46 13 -16 13 -17 -2 -11 -15 5 -16
3 -7 -21 6 -14 8 -36 5 -47 -3 -12 1 -30 9 -41 9 -10 15 -14 14 -9 -1 6 -1 21
0 35 1 20 3 22 11 10 8 -12 10 -10 10 8 0 13 -5 32 -10 43 -8 13 -7 19 0 19 6
0 8 5 5 11 -4 6 2 19 14 30 12 11 19 25 15 30 -3 5 -2 15 4 22 6 8 3 18 -10
30 -10 9 -19 14 -19 10z"/>
<path d="M650 1550 c0 -11 5 -20 10 -20 6 0 10 9 10 20 0 11 -4 20 -10 20 -5
0 -10 -9 -10 -20z"/>
<path d="M1198 1543 c7 -3 16 -2 19 1 4 3 -2 6 -13 5 -11 0 -14 -3 -6 -6z"/>
<path d="M982 1471 c-19 -11 -5 -64 15 -57 8 3 17 6 19 6 2 0 -2 10 -11 23 -8
13 -12 27 -8 30 9 9 1 8 -15 -2z"/>
<path d="M1655 1410 c3 -5 8 -10 11 -10 2 0 4 5 4 10 0 6 -5 10 -11 10 -5 0
-7 -4 -4 -10z"/>
<path d="M1617 1379 c8 -16 17 -28 19 -26 7 6 -18 57 -27 57 -4 0 -1 -14 8
-31z"/>
<path d="M870 1370 c0 -19 11 -26 23 -14 8 8 -3 34 -14 34 -5 0 -9 -9 -9 -20z"/>
<path d="M1570 1380 c0 -5 5 -10 10 -10 6 0 10 5 10 10 0 6 -4 10 -10 10 -5 0
-10 -4 -10 -10z"/>
<path d="M1611 1334 c0 -11 3 -14 6 -6 3 7 2 16 -1 19 -3 4 -6 -2 -5 -13z"/>
<path d="M580 1255 c0 -8 -5 -15 -12 -15 -6 0 -9 -2 -6 -5 3 -3 13 -3 22 1 17
7 22 34 6 34 -5 0 -10 -7 -10 -15z"/>
<path d="M550 1208 c0 -7 6 -33 14 -57 13 -44 13 -44 19 -16 3 17 -1 42 -9 57
-16 30 -24 36 -24 16z"/>
<path d="M456 1192 c-7 -12 13 -62 25 -62 4 0 11 9 14 20 7 23 21 26 28 8 3
-7 6 -3 6 9 1 28 -19 41 -31 19 -9 -16 -10 -16 -22 0 -9 11 -15 13 -20 6z"/>
<path d="M604 1176 c-14 -36 8 -64 35 -47 12 8 13 14 3 35 -13 29 -30 34 -38
12z"/>
<path d="M1818 1183 c7 -3 16 -2 19 1 4 3 -2 6 -13 5 -11 0 -14 -3 -6 -6z"/>
<path d="M417 1160 c-7 -28 1 -46 14 -33 6 6 6 19 1 33 l-9 24 -6 -24z"/>
<path d="M1320 1086 c0 -9 7 -16 16 -16 9 0 14 5 12 12 -6 18 -28 21 -28 4z"/>
<path d="M1880 911 c0 -13 49 -65 55 -59 3 2 -5 15 -18 29 -12 13 -21 27 -19
31 1 5 -2 8 -8 8 -5 0 -10 -4 -10 -9z"/>
<path d="M1880 831 c0 -12 6 -21 16 -21 9 0 14 7 12 17 -5 25 -28 28 -28 4z"/>
<path d="M1928 793 c7 -3 16 -2 19 1 4 3 -2 6 -13 5 -11 0 -14 -3 -6 -6z"/>
<path d="M603 720 c-3 -36 12 -48 27 -20 8 16 8 24 -4 35 -20 20 -21 19 -23
-15z"/>
<path d="M619 664 c-12 -14 -9 -20 19 -44 29 -24 31 -28 15 -33 -10 -4 -26
-12 -35 -19 -15 -10 -21 -9 -38 9 -11 12 -20 27 -20 32 0 17 -46 42 -70 38
-29 -5 -34 -16 -20 -51 8 -21 15 -26 30 -21 13 4 25 -1 37 -14 10 -12 27 -21
40 -21 12 0 25 -4 28 -10 3 -5 18 -10 32 -10 13 0 37 -8 51 -18 15 -10 41 -19
57 -20 17 -2 45 -7 64 -12 19 -5 41 -6 50 -1 9 4 35 6 59 4 41 -4 57 9 27 21
-19 7 -20 26 -1 26 7 0 16 -8 19 -19 7 -28 78 -35 85 -8 3 12 11 17 23 14 11
-3 19 -1 19 5 0 5 12 25 26 44 15 19 23 34 19 34 -3 0 3 12 14 27 28 35 21 38
-22 13 -32 -19 -46 -20 -138 -16 -56 3 -104 8 -106 10 -2 2 -21 0 -41 -5 -44
-10 -76 -3 -68 16 5 15 -23 25 -72 25 -18 0 -42 4 -52 10 -13 7 -21 5 -31 -6z"/>
<path d="M1325 490 c3 -5 8 -10 11 -10 2 0 4 5 4 10 0 6 -5 10 -11 10 -5 0 -7
-4 -4 -10z"/>
<path d="M1280 460 c0 -5 9 -10 20 -10 11 0 20 5 20 10 0 6 -9 10 -20 10 -11
0 -20 -4 -20 -10z"/>
<path d="M834 265 c-6 -16 9 -34 29 -35 13 0 8 27 -8 40 -12 10 -16 9 -21 -5z"/>
<path d="M1110 230 c0 -11 4 -20 9 -20 5 0 7 9 4 20 -3 11 -7 20 -9 20 -2 0
-4 -9 -4 -20z"/>
<path d="M1190 221 c0 -6 4 -13 10 -16 6 -3 7 1 4 9 -7 18 -14 21 -14 7z"/>
<path d="M915 210 c-3 -5 -1 -10 4 -10 6 0 11 5 11 10 0 6 -2 10 -4 10 -3 0
-8 -4 -11 -10z"/>
</g>
</svg>
